<svg xmlns="http://www.w3.org/2000/svg" viewBox="0 0 64 64" width="64" height="64">
  <defs>
    <radialGradient id="bg4" cx="50%" cy="40%" r="50%">
      <stop offset="0%" stop-color="#FFF8E1"/>
      <stop offset="100%" stop-color="#FFECB3"/>
    </radialGradient>
  </defs>
  <!-- Background circle -->
  <circle cx="32" cy="32" r="30" fill="url(#bg4)" stroke="#F9A825" stroke-width="2"/>
  <!-- Clipboard body -->
  <rect x="16" y="16" width="28" height="36" rx="2" fill="#EFEBE9" stroke="#8D6E63" stroke-width="1.5"/>
  <!-- Clipboard clip -->
  <rect x="24" y="12" width="12" height="6" rx="1.5" fill="#8D6E63"/>
  <rect x="27" y="10" width="6" height="4" rx="1" fill="#A1887F"/>
  <!-- Lines of text -->
  <line x1="21" y1="24" x2="39" y2="24" stroke="#BCAAA4" stroke-width="1.5" stroke-linecap="round"/>
  <line x1="21" y1="29" x2="36" y2="29" stroke="#BCAAA4" stroke-width="1.5" stroke-linecap="round"/>
  <line x1="21" y1="34" x2="38" y2="34" stroke="#BCAAA4" stroke-width="1.5" stroke-linecap="round"/>
  <line x1="21" y1="39" x2="33" y2="39" stroke="#BCAAA4" stroke-width="1.5" stroke-linecap="round"/>
  <!-- Checkmark circle -->
  <circle cx="46" cy="46" r="11" fill="#4CAF50"/>
  <circle cx="46" cy="46" r="9" fill="#66BB6A"/>
  <!-- Checkmark -->
  <polyline points="40,46 44,50 52,42" fill="none" stroke="white" stroke-width="2.5" stroke-linecap="round" stroke-linejoin="round"/>
  <!-- Small bee icon on clipboard -->
  <ellipse cx="35" cy="44" rx="3" ry="2" fill="#FFD54F"/>
  <line x1="33.5" y1="43.5" x2="36.5" y2="43.5" stroke="#5D4037" stroke-width="0.7"/>
  <line x1="33.5" y1="44.8" x2="36.5" y2="44.8" stroke="#5D4037" stroke-width="0.7"/>
  <circle cx="33" cy="43" r="1" fill="#FFD54F"/>
</svg>
