<svg xmlns="http://www.w3.org/2000/svg" viewBox="0 0 64 64" width="64" height="64">
  <defs>
    <radialGradient id="bg1" cx="50%" cy="40%" r="50%">
      <stop offset="0%" stop-color="#FFF8E1"/>
      <stop offset="100%" stop-color="#FFECB3"/>
    </radialGradient>
  </defs>
  <!-- Background circle -->
  <circle cx="32" cy="32" r="30" fill="url(#bg1)" stroke="#F9A825" stroke-width="2"/>
  <!-- Bee 1 (center, larger) -->
  <ellipse cx="32" cy="30" rx="8" ry="6" fill="#FFD54F"/>
  <line x1="28" y1="28" x2="36" y2="28" stroke="#5D4037" stroke-width="1.5"/>
  <line x1="27" y1="31" x2="37" y2="31" stroke="#5D4037" stroke-width="1.5"/>
  <ellipse cx="38" cy="30" rx="3" ry="2" fill="#5D4037"/>
  <circle cx="26" cy="28" r="1.2" fill="#333"/>
  <ellipse cx="30" cy="24" rx="5" ry="3" fill="#FFFFFFAA" transform="rotate(-20 30 24)"/>
  <ellipse cx="34" cy="24" rx="5" ry="3" fill="#FFFFFFAA" transform="rotate(20 34 24)"/>
  <!-- Bee 2 (top-right, smaller) -->
  <ellipse cx="46" cy="18" rx="5" ry="4" fill="#FFD54F"/>
  <line x1="43" y1="17" x2="49" y2="17" stroke="#5D4037" stroke-width="1.2"/>
  <line x1="43" y1="19.5" x2="49" y2="19.5" stroke="#5D4037" stroke-width="1.2"/>
  <ellipse cx="50" cy="18" rx="2" ry="1.5" fill="#5D4037"/>
  <circle cx="42" cy="16.5" r="0.9" fill="#333"/>
  <ellipse cx="45" cy="14" rx="3.5" ry="2" fill="#FFFFFFAA" transform="rotate(-15 45 14)"/>
  <ellipse cx="48" cy="14" rx="3.5" ry="2" fill="#FFFFFFAA" transform="rotate(15 48 14)"/>
  <!-- Bee 3 (bottom-left, smaller) -->
  <ellipse cx="20" cy="42" rx="5" ry="4" fill="#FFD54F"/>
  <line x1="17" y1="41" x2="23" y2="41" stroke="#5D4037" stroke-width="1.2"/>
  <line x1="17" y1="43.5" x2="23" y2="43.5" stroke="#5D4037" stroke-width="1.2"/>
  <ellipse cx="24" cy="42" rx="2" ry="1.5" fill="#5D4037"/>
  <circle cx="16" cy="40.5" r="0.9" fill="#333"/>
  <ellipse cx="19" cy="38" rx="3.5" ry="2" fill="#FFFFFFAA" transform="rotate(-15 19 38)"/>
  <ellipse cx="22" cy="38" rx="3.5" ry="2" fill="#FFFFFFAA" transform="rotate(15 22 38)"/>
  <!-- Small flight lines -->
  <path d="M14 44 Q12 42 14 40" fill="none" stroke="#BDBDBD" stroke-width="0.8"/>
  <path d="M40 20 Q38 18 40 16" fill="none" stroke="#BDBDBD" stroke-width="0.8"/>
</svg>
