<svg xmlns="http://www.w3.org/2000/svg" viewBox="0 0 64 64" width="64" height="64">
  <defs>
    <radialGradient id="bg15" cx="50%" cy="40%" r="50%">
      <stop offset="0%" stop-color="#FFF8E1"/>
      <stop offset="100%" stop-color="#E8F5E9"/>
    </radialGradient>
  </defs>
  <!-- Background circle -->
  <circle cx="32" cy="32" r="30" fill="url(#bg15)" stroke="#66BB6A" stroke-width="2"/>
  <!-- Stem -->
  <path d="M32,58 Q30,48 32,38" fill="none" stroke="#4CAF50" stroke-width="2.5" stroke-linecap="round"/>
  <!-- Leaves -->
  <path d="M32,48 Q24,44 20,46 Q24,42 32,44" fill="#66BB6A" stroke="#4CAF50" stroke-width="0.8"/>
  <path d="M32,42 Q40,38 44,40 Q40,36 32,38" fill="#66BB6A" stroke="#4CAF50" stroke-width="0.8"/>
  <!-- Flower petals (large, colorful) -->
  <!-- Back petals -->
  <ellipse cx="24" cy="20" rx="6" ry="9" fill="#F48FB1" transform="rotate(-30 24 20)"/>
  <ellipse cx="40" cy="20" rx="6" ry="9" fill="#F48FB1" transform="rotate(30 40 20)"/>
  <ellipse cx="22" cy="30" rx="6" ry="9" fill="#EF9A9A" transform="rotate(-70 22 30)"/>
  <ellipse cx="42" cy="30" rx="6" ry="9" fill="#EF9A9A" transform="rotate(70 42 30)"/>
  <!-- Front petals -->
  <ellipse cx="32" cy="16" rx="6" ry="10" fill="#F06292"/>
  <ellipse cx="26" cy="24" rx="6" ry="9" fill="#EC407A" transform="rotate(-40 26 24)"/>
  <ellipse cx="38" cy="24" rx="6" ry="9" fill="#EC407A" transform="rotate(40 38 24)"/>
  <!-- Center of flower -->
  <circle cx="32" cy="26" r="6" fill="#FFD54F"/>
  <circle cx="32" cy="26" r="4" fill="#FFB300"/>
  <!-- Center texture dots -->
  <circle cx="30" cy="25" r="0.8" fill="#FF8F00"/>
  <circle cx="34" cy="25" r="0.8" fill="#FF8F00"/>
  <circle cx="32" cy="27.5" r="0.8" fill="#FF8F00"/>
  <circle cx="30.5" cy="27" r="0.6" fill="#FF8F00"/>
  <circle cx="33.5" cy="27" r="0.6" fill="#FF8F00"/>
  <circle cx="32" cy="24.5" r="0.6" fill="#FF8F00"/>
  <!-- Sparkle -->
  <path d="M48,12 L49,9 L50,12 L53,13 L50,14 L49,17 L48,14 L45,13 Z" fill="#FFF176" opacity="0.8"/>
  <path d="M14,14 L15,12 L16,14 L18,15 L16,16 L15,18 L14,16 L12,15 Z" fill="#FFF176" opacity="0.6"/>
</svg>
