<svg xmlns="http://www.w3.org/2000/svg" viewBox="0 0 64 64" width="64" height="64">
  <defs>
    <radialGradient id="bg13" cx="50%" cy="40%" r="50%">
      <stop offset="0%" stop-color="#E8F5E9"/>
      <stop offset="100%" stop-color="#C8E6C9"/>
    </radialGradient>
  </defs>
  <!-- Background circle -->
  <circle cx="32" cy="32" r="30" fill="url(#bg13)" stroke="#66BB6A" stroke-width="2"/>
  <!-- Ground/soil -->
  <path d="M8,48 Q20,44 32,48 Q44,52 56,48 L56,58 Q44,62 32,58 Q20,62 8,58 Z" fill="#8D6E63"/>
  <path d="M8,48 Q20,44 32,48 Q44,52 56,48" fill="none" stroke="#6D4C41" stroke-width="1"/>
  <!-- Hand scattering seeds -->
  <path d="M20,28 Q18,24 22,22 Q26,20 28,24 Q30,22 32,24 Q34,22 34,26 Q34,30 28,32 Q22,34 20,28" fill="#FFCCBC" stroke="#FFAB91" stroke-width="1"/>
  <!-- Thumb -->
  <path d="M20,28 Q16,26 18,24" fill="none" stroke="#FFAB91" stroke-width="2" stroke-linecap="round"/>
  <!-- Seeds falling -->
  <ellipse cx="30" cy="36" rx="2" ry="1.5" fill="#795548" transform="rotate(20 30 36)"/>
  <ellipse cx="36" cy="34" rx="1.8" ry="1.2" fill="#8D6E63" transform="rotate(-15 36 34)"/>
  <ellipse cx="24" cy="38" rx="1.8" ry="1.2" fill="#795548" transform="rotate(30 24 38)"/>
  <ellipse cx="40" cy="38" rx="1.5" ry="1" fill="#8D6E63" transform="rotate(10 40 38)"/>
  <ellipse cx="32" cy="42" rx="1.8" ry="1.2" fill="#795548" transform="rotate(-20 32 42)"/>
  <ellipse cx="20" cy="42" rx="1.5" ry="1" fill="#8D6E63" transform="rotate(25 20 42)"/>
  <ellipse cx="44" cy="42" rx="1.5" ry="1" fill="#795548" transform="rotate(-10 44 42)"/>
  <!-- Tiny dotted arc showing seed trajectory -->
  <circle cx="28" cy="34" r="0.8" fill="#795548" opacity="0.4"/>
  <circle cx="34" cy="32" r="0.8" fill="#795548" opacity="0.3"/>
  <circle cx="38" cy="36" r="0.8" fill="#795548" opacity="0.3"/>
  <!-- Small sprout hints in soil -->
  <path d="M18,48 Q18,46 19,45" fill="none" stroke="#4CAF50" stroke-width="1" stroke-linecap="round"/>
  <path d="M42,48 Q42,46 43,45" fill="none" stroke="#4CAF50" stroke-width="1" stroke-linecap="round"/>
</svg>
