<svg xmlns="http://www.w3.org/2000/svg" viewBox="0 0 64 64" width="64" height="64">
  <defs>
    <radialGradient id="bg14" cx="50%" cy="40%" r="50%">
      <stop offset="0%" stop-color="#E8F5E9"/>
      <stop offset="100%" stop-color="#C8E6C9"/>
    </radialGradient>
  </defs>
  <!-- Background circle -->
  <circle cx="32" cy="32" r="30" fill="url(#bg14)" stroke="#66BB6A" stroke-width="2"/>
  <!-- Watering can body -->
  <path d="M12,24 L12,40 Q12,44 16,44 L36,44 Q40,44 40,40 L40,24 Q40,20 36,20 L16,20 Q12,20 12,24 Z" fill="#66BB6A" stroke="#4CAF50" stroke-width="1.5"/>
  <!-- Can highlight -->
  <path d="M14,22 L14,38" fill="none" stroke="#81C784" stroke-width="2" opacity="0.5" stroke-linecap="round"/>
  <!-- Handle -->
  <path d="M16,20 Q16,10 26,10 Q36,10 36,20" fill="none" stroke="#4CAF50" stroke-width="3" stroke-linecap="round"/>
  <!-- Spout -->
  <path d="M40,28 L50,18 L54,20 L44,32" fill="#66BB6A" stroke="#4CAF50" stroke-width="1.5"/>
  <!-- Spout head (rose) -->
  <ellipse cx="52" cy="18" rx="4" ry="3" fill="#81C784" stroke="#4CAF50" stroke-width="1" transform="rotate(-40 52 18)"/>
  <!-- Spout holes -->
  <circle cx="51" cy="17" r="0.7" fill="#4CAF50"/>
  <circle cx="53" cy="17" r="0.7" fill="#4CAF50"/>
  <circle cx="52" cy="19" r="0.7" fill="#4CAF50"/>
  <circle cx="54" cy="19" r="0.7" fill="#4CAF50"/>
  <!-- Water drops -->
  <path d="M50,22 Q51,25 50,27" fill="none" stroke="#42A5F5" stroke-width="1.5" stroke-linecap="round"/>
  <ellipse cx="50" cy="28" rx="1.5" ry="2" fill="#42A5F5"/>
  <path d="M53,23 Q54,27 53,30" fill="none" stroke="#42A5F5" stroke-width="1.5" stroke-linecap="round"/>
  <ellipse cx="53" cy="31" rx="1.5" ry="2" fill="#42A5F5"/>
  <path d="M47,24 Q48,28 47,31" fill="none" stroke="#42A5F5" stroke-width="1.2" stroke-linecap="round"/>
  <ellipse cx="47" cy="32" rx="1.2" ry="1.8" fill="#42A5F5"/>
  <path d="M55,25 Q56,28 55,31" fill="none" stroke="#42A5F5" stroke-width="1" stroke-linecap="round"/>
  <ellipse cx="55" cy="32" rx="1" ry="1.5" fill="#42A5F5"/>
  <!-- Small splash drops -->
  <circle cx="48" cy="36" r="1" fill="#42A5F5" opacity="0.6"/>
  <circle cx="52" cy="35" r="0.8" fill="#42A5F5" opacity="0.5"/>
  <circle cx="56" cy="36" r="0.8" fill="#42A5F5" opacity="0.4"/>
  <!-- Ground -->
  <path d="M42,50 Q48,46 56,50" fill="none" stroke="#8D6E63" stroke-width="1.5"/>
</svg>
