<svg xmlns="http://www.w3.org/2000/svg" viewBox="0 0 64 64" width="64" height="64">
  <!-- Background circle -->
  <circle cx="32" cy="32" r="30" fill="#E8F5E9"/>
  <!-- Soil -->
  <ellipse cx="32" cy="52" rx="22" ry="6" fill="#795548"/>
  <ellipse cx="32" cy="50" rx="20" ry="5" fill="#8D6E63"/>
  <!-- Stem -->
  <rect x="30" y="36" width="4" height="14" rx="1.5" fill="#66BB6A"/>
  <!-- Leaves on stem -->
  <ellipse cx="24" cy="42" rx="7" ry="3" fill="#81C784" transform="rotate(-20 24 42)"/>
  <ellipse cx="40" cy="44" rx="7" ry="3" fill="#81C784" transform="rotate(20 40 44)"/>
  <!-- Small forming broccoli head - cluster of bumps -->
  <circle cx="32" cy="30" r="8" fill="#388E3C"/>
  <circle cx="28" cy="28" r="4" fill="#43A047"/>
  <circle cx="36" cy="28" r="4" fill="#43A047"/>
  <circle cx="32" cy="25" r="4" fill="#4CAF50"/>
  <circle cx="32" cy="32" r="3.5" fill="#43A047"/>
  <circle cx="27" cy="32" r="3" fill="#388E3C"/>
  <circle cx="37" cy="32" r="3" fill="#388E3C"/>
  <!-- Tiny bumpy texture -->
  <circle cx="30" cy="26" r="1.5" fill="#66BB6A"/>
  <circle cx="34" cy="26" r="1.5" fill="#66BB6A"/>
  <circle cx="32" cy="29" r="1.5" fill="#66BB6A"/>
</svg>