<svg xmlns="http://www.w3.org/2000/svg" viewBox="0 0 64 64" width="64" height="64">
  <!-- Background circle -->
  <circle cx="32" cy="32" r="30" fill="#E8F5E9"/>
  <!-- Simple basket -->
  <path d="M16 38 Q16 54 32 54 Q48 54 48 38 Z" fill="#D7A86E" stroke="#A1887F" stroke-width="1"/>
  <path d="M18 38 Q18 52 32 52 Q46 52 46 38 Z" fill="#DEB887"/>
  <!-- Basket rim -->
  <rect x="14" y="36" width="36" height="4" rx="2" fill="#D7A86E" stroke="#A1887F" stroke-width="0.8"/>
  <!-- Basket weave lines -->
  <line x1="26" y1="40" x2="26" y2="50" stroke="#C4956A" stroke-width="0.7"/>
  <line x1="32" y1="40" x2="32" y2="52" stroke="#C4956A" stroke-width="0.7"/>
  <line x1="38" y1="40" x2="38" y2="50" stroke="#C4956A" stroke-width="0.7"/>
  <!-- Broccoli in basket -->
  <!-- Stem sticking up -->
  <rect x="30" y="28" width="4" height="10" rx="1.5" fill="#66BB6A"/>
  <!-- Broccoli head -->
  <circle cx="32" cy="22" r="10" fill="#2E7D32"/>
  <circle cx="27" cy="20" r="4.5" fill="#388E3C"/>
  <circle cx="37" cy="20" r="4.5" fill="#388E3C"/>
  <circle cx="32" cy="17" r="5" fill="#43A047"/>
  <circle cx="32" cy="25" r="4" fill="#388E3C"/>
  <circle cx="26" cy="24" r="3" fill="#2E7D32"/>
  <circle cx="38" cy="24" r="3" fill="#2E7D32"/>
  <!-- Texture -->
  <circle cx="30" cy="18" r="1.5" fill="#4CAF50"/>
  <circle cx="34" cy="18" r="1.5" fill="#4CAF50"/>
  <circle cx="32" cy="21" r="1.5" fill="#4CAF50"/>
  <!-- Sparkles -->
  <circle cx="12" cy="16" r="1.5" fill="#FFD54F"/>
  <circle cx="52" cy="16" r="1.5" fill="#FFD54F"/>
  <circle cx="10" cy="44" r="1" fill="#FFD54F"/>
  <circle cx="54" cy="44" r="1" fill="#FFD54F"/>
</svg>