<svg xmlns="http://www.w3.org/2000/svg" viewBox="0 0 64 64" width="64" height="64">
  <!-- Background circle -->
  <circle cx="32" cy="32" r="30" fill="#E8F5E9"/>
  <!-- Main stem -->
  <line x1="32" y1="56" x2="32" y2="12" stroke="#66BB6A" stroke-width="3" stroke-linecap="round"/>
  <!-- Branch stems -->
  <line x1="32" y1="30" x2="22" y2="26" stroke="#66BB6A" stroke-width="2" stroke-linecap="round"/>
  <line x1="32" y1="24" x2="42" y2="20" stroke="#66BB6A" stroke-width="2" stroke-linecap="round"/>
  <!-- Leaves -->
  <path d="M32 18 Q26 10 22 16 Q26 18 32 18" fill="#81C784"/>
  <path d="M32 18 Q38 10 42 16 Q38 18 32 18" fill="#66BB6A"/>
  <path d="M32 40 Q24 34 22 38 Q24 40 32 40" fill="#81C784"/>
  <path d="M32 40 Q40 34 42 38 Q40 40 32 40" fill="#66BB6A"/>
  <!-- Small green tomato -->
  <circle cx="22" cy="30" r="5" fill="#8BC34A"/>
  <circle cx="22" cy="30" r="5" fill="#7CB342" opacity="0.6"/>
  <!-- Small star calyx on green tomato -->
  <path d="M22 25 L21 27 L19 26 L20 28 L18 28 L20 29 L19 31 L21 30 L22 32 L23 30 L25 31 L24 29 L26 28 L24 28 L25 26 L23 27 Z" fill="#4CAF50" opacity="0.7"/>
  <!-- Tomato turning red -->
  <circle cx="42" cy="24" r="5.5" fill="#EF5350"/>
  <circle cx="42" cy="24" r="5.5" fill="#E53935" opacity="0.5"/>
  <!-- Star calyx on red tomato -->
  <path d="M42 19 L41 21 L39 20 L40 22 L38 22 L40 23 L39 25 L41 24 L42 26 L43 24 L45 25 L44 23 L46 22 L44 22 L45 20 L43 21 Z" fill="#4CAF50" opacity="0.7"/>
  <!-- Tiny highlight on tomatoes -->
  <circle cx="20" cy="28" r="1" fill="white" opacity="0.4"/>
  <circle cx="40" cy="22" r="1.2" fill="white" opacity="0.4"/>
</svg>