<svg xmlns="http://www.w3.org/2000/svg" viewBox="0 0 64 64" width="64" height="64">
  <!-- Background circle -->
  <circle cx="32" cy="32" r="30" fill="#E8F5E9"/>
  <!-- Large ripe tomato in center -->
  <circle cx="32" cy="32" r="14" fill="#E53935"/>
  <circle cx="32" cy="32" r="14" fill="#D32F2F" opacity="0.4"/>
  <!-- Tomato highlight -->
  <ellipse cx="28" cy="27" rx="4" ry="3" fill="#EF5350" opacity="0.6"/>
  <circle cx="27" cy="26" r="2" fill="white" opacity="0.3"/>
  <!-- Tomato segments hint -->
  <path d="M32 18 L32 46" stroke="#C62828" stroke-width="0.5" opacity="0.3"/>
  <path d="M18 32 L46 32" stroke="#C62828" stroke-width="0.5" opacity="0.3"/>
  <!-- Star-shaped calyx on top -->
  <path d="M32 18 L30 22 L26 19 L28 23 L24 22 L27 25 L32 24 L37 25 L40 22 L36 23 L38 19 L34 22 Z" fill="#4CAF50"/>
  <!-- Tiny stem -->
  <rect x="31" y="14" width="2" height="5" rx="1" fill="#66BB6A"/>
  <!-- Smaller tomato -->
  <circle cx="48" cy="44" r="6" fill="#EF5350"/>
  <circle cx="47" cy="43" r="1.5" fill="white" opacity="0.25"/>
  <path d="M48 38 L47 40 L45 39 L46 41 L48 40 L50 41 L49 39 L51 40 L50 38 Z" fill="#4CAF50" transform="scale(0.8) translate(12 10)"/>
  <!-- Another small tomato -->
  <circle cx="16" cy="46" r="5" fill="#E53935"/>
  <circle cx="15" cy="45" r="1.2" fill="white" opacity="0.25"/>
  <!-- Sparkles -->
  <circle cx="12" cy="14" r="1.5" fill="#FFD54F"/>
  <circle cx="52" cy="14" r="1.5" fill="#FFD54F"/>
  <circle cx="50" cy="54" r="1" fill="#FFD54F"/>
</svg>